<svg width="144" height="40" viewBox="0 0 144 40" fill="none" xmlns="http://www.w3.org/2000/svg" role="img" aria-label="Логотип Райффайзен Банк">
    <g clip-path="url(#clip0_4082_19890)">
        <path d="M40 32.44C40 37.3 37.3 40 32.44 40H7.56C2.7 40 0 37.3 0 32.44V7.56C0 2.7 2.7 0 7.56 0H32.45C37.3 0 40 2.7 40 7.56V32.44Z" fill="#FFE600"></path>
        <path d="M25.72 18.05V14.23L27.1 12.85V16.16L28.3 17.36L33.13 12.53L34.32 13.72C34.31 12.82 34.13 10.21 31.92 8.03997C29.54 5.73997 26.96 6.77997 26.08 7.65997L21.26 12.48L22.49 13.71L20 16.22L17.51 13.73L18.74 12.5L13.92 7.67997C13.04 6.79997 10.46 5.75997 8.07999 8.05997C5.86999 10.23 5.68999 12.84 5.67999 13.74L6.86999 12.55L11.7 17.38L12.9 16.18V12.87L14.28 14.25V18.07L16.22 20L6.65999 29.56L10.44 33.33L20 23.78L29.56 33.34L33.34 29.57L23.78 20L25.72 18.05Z" fill="#2B2D34"></path>
    </g>
    <defs>
        <clipPath id="clip0_4082_19890">
            <rect width="143.91" height="40" fill="white"></rect>
        </clipPath>
    </defs>
</svg>